PathFileType	4	(X/Y/Z)	C:/Users/beibeiliu/ov580/test_trc/User2\sequence.30_training_dense_left.trc
DataRate	CameraRate	NumFrames	NumMarkers	Units	OrigDataRate	OrigDataStartFrame	OrigNumFrames
120	120	16	19	mm	120	38	302
Frame#	Time	ThumbCMC			ThumbMCP			ThumbIP			ThumbTip			IndexMCP			IndexPIP			IndexTip			MiddleMCP			MiddlePIP			MiddleTip			RingMCP			RingPIP			RingTip			PinkyMCP			PinkyPIP			PinkyTip			BackHand1			BackHand2			BackHand3	
		X0	Y0	Z0	X1	Y1	Z1	X2	Y2	Z2	X3	Y3	Z3	X4	Y4	Z4	X5	Y5	Z5	X6	Y6	Z6	X7	Y7	Z7	X8	Y8	Z8	X9	Y9	Z9	X10	Y10	Z10	X11	Y11	Z11	X12	Y12	Z12	X13	Y13	Z13	X14	Y14	Z14	X15	Y15	Z15	X16	Y16	Z16	X17	Y17	Z17	X18	Y18	Z18	
37	0.308333	-226.471	-45.3548	63.2838	-222.972	-52.1975	32.8326	-220.953	-60.2649	4.18563	-215.693	-67.0598	-20.8079	-289.355	-23.1361	7.39556	-301.36	-17.5773	-13.649	-315.064	-10.7573	-34.722	-314.017	-20.0949	24.2531	-334.772	-14.3741	1.93698	-356.903	-5.72798	-14.6387	-329.217	-25.1161	44.4146	-348.855	-19.5516	22.9468	-373.492	-12.3577	7.38819	-332.115	-36.9295	72.9793	-356.874	-30.8723	63.686	-372.973	-19.1352	55.0476	-289.002	-24.1326	81.4629	-275.692	-18.2555	108.77	-255.614	-19.7195	68.9338	
38	0.316667	-224.684	-45.5133	65.791	-215.467	-53.5665	35.0875	-214.71	-59.2735	2.45345	-214.886	-68.0183	-17.6745	-280.897	-23.0919	10.4054	-293.366	-16.6472	-15.974	-311.711	-8.77814	-33.3622	-306.501	-18.2531	20.295	-330.836	-12.7371	0.448219	-354.625	-2.30098	-17.6743	-323.901	-23.3801	39.1658	-343.854	-18.3442	23.5012	-364.65	-11.5909	6.33091	-330.599	-35.4445	67.7504	-353.2	-29.0643	61.7776	-374.371	-14.2846	54.2104	-289.356	-25.7025	82.8496	-269.397	-19.8114	105.538	-251.382	-18.9467	70.7427	
39	0.325	-221.073	-46.4131	68.15	-213.914	-53.5465	40.3927	-211.015	-57.5438	2.39884	-208.539	-63.5775	-22.9738	-277.455	-19.4122	7.51781	-286.275	-13.7669	-11.7025	-302.965	-3.84891	-35.1496	-306.461	-14.9938	21.1988	-325.928	-8.69906	-0.700835	-345.077	0.311788	-15.3477	-317.238	-21.5528	38.4896	-339.061	-15.5244	21.7773	-360.777	-6.29309	3.99901	-327.879	-33.1349	65.976	-348.778	-25.5295	56.8159	-368.595	-12.3386	48.0415	-283.341	-23.8446	81.1108	-268.857	-22.7355	108.506	-245.651	-21.0748	74.2763	
40	0.333333	-211.175	-47.6026	67.513	-206.446	-51.6956	39.8006	-201.71	-53.9477	5.666	-197.565	-59.477	-18.4136	-268.542	-14.2703	9.79438	-276.396	-7.59791	-12.7111	-291.551	2.69874	-31.2496	-295.432	-10.5584	20.8193	-312.308	-1.91167	-0.630453	-328.455	10.6801	-22.7269	-311.175	-16.7231	39.1776	-327.395	-7.82519	20.4215	-346.447	2.10102	-3.02397	-317.502	-30.9865	63.0907	-340.418	-21.5657	53.8629	-354.923	-5.16785	42.8759	-283.447	-23.9192	81.0448	-264.375	-24.2241	109.846	-243.133	-20.5694	78.0608	
41	0.341667	-204.911	-48.232	73.1709	-198.382	-53.3631	47.8043	-190.307	-51.5169	8.54978	-188.794	-54.1346	-14.0385	-251.754	-10.9654	13.6244	-259.357	-1.06163	-7.90332	-273.059	10.8672	-28.6748	-282.006	-3.13071	20.4622	-294.551	8.63758	-2.44393	-312.309	23.0615	-21.8318	-299.792	-10.4391	39.0735	-311.26	0.816771	16.7501	-326.194	12.3347	-6.76494	-312.9	-25.7827	61.238	-330.052	-13.4594	47.0008	-346.283	4.71688	37.6946	-274.325	-23.5591	81.2587	-258.375	-26.5424	109.553	-233.856	-22.5885	81.761	
42	0.35	-201.495	-50.2935	76.7542	-185.557	-51.5183	51.8285	-183.432	-48.8334	16.0626	-177.582	-51.4271	-5.81026	-233.921	-6.13644	17.7524	-241.532	6.93739	-7.60493	-249.822	22.2505	-29.9742	-265.417	3.35837	20.8385	-276.525	18.1265	-1.108	-285.609	36.5328	-26.061	-285.758	-5.39564	37.843	-299.521	10.1775	16.3983	-306.858	23.6132	-7.91415	-302.21	-21.564	57.2956	-316.099	-5.91201	42.0595	-327.342	12.1339	31.7837	-265.411	-23.2545	83.6815	-255.412	-28.9795	112.769	-228.081	-23.9064	86.5114	
43	0.358333	-192.486	-51.3683	84.0902	-180.426	-50.428	58.1587	-168.931	-47.5738	27.3593	-162.306	-46.1496	-0.921604	-223.791	-1.30547	22.5115	-220.415	11.1818	1.35583	-227.242	26.6089	-19.9812	-249.952	5.83588	27.9616	-253.481	26.6594	0.750967	-263.395	42.872	-20.4821	-270.863	1.49696	36.1025	-279.315	15.5522	18.9754	-289.485	32.3968	-5.98701	-287.985	-15.5848	53.0127	-301.959	-1.07067	40.5888	-310.578	16.4811	31.2446	-256.75	-20.8594	81.7538	-253.641	-29.178	115.224	-218.893	-24.5531	91.3256	
44	0.366667	-188.98	-53.2151	90.851	-167.636	-50.9565	64.0822	-154.314	-42.5656	30.2669	-152.071	-41.9675	7.89183	-206.068	-0.0109573	29.1712	-205.333	15.4801	8.42775	-209.103	33.6926	-15.9011	-231.657	8.8459	32.2685	-237.534	28.7148	8.69584	-241.372	50.4904	-15.902	-258.378	5.95737	37.5589	-263.429	20.564	21.1349	-270.706	39.3078	-4.03417	-275.634	-15.9803	54.2533	-290.053	5.14022	38.3763	-295.347	26.038	27.3355	-248.538	-21.3492	84.6722	-242.741	-29.5241	114.352	-210.305	-22.1917	92.6694	
45	0.375	-179.364	-53.2356	93.4898	-159.304	-49.5514	68.1553	-147.214	-44.8141	40.0707	-138.2	-42.7045	18.1921	-191.472	2.81251	34.5912	-187.353	19.4885	12.1035	-188.352	36.5834	-9.38165	-217.61	14.073	33.9109	-222.465	35.6072	9.64607	-222.784	54.6668	-9.98801	-240.263	7.68762	41.4925	-246.444	24.1366	23.2671	-251.374	46.1623	-2.68516	-265.802	-8.68885	52.6093	-276.954	7.43035	39.4319	-280.797	27.2427	30.7084	-243.029	-19.9503	87.0834	-236.313	-28.9379	118.555	-203.629	-24.3548	98.6133	
46	0.383333	-169.381	-50.6955	97.0067	-147.426	-49.8647	75.9594	-134.738	-42.4736	46.8409	-128.881	-37.9004	20.737	-178.072	4.00534	41.0707	-174.179	20.6659	21.1335	-174.525	39.0683	-2.49964	-202.427	16.4845	38.69	-203.109	39.2924	14.3766	-205.832	57.8724	-5.54492	-233.513	9.42834	45.0972	-231.619	28.4846	25.6651	-237.139	47.7626	3.7494	-254.488	-5.81473	52.919	-260.159	8.12537	40.5702	-267.748	28.9024	29.6017	-229.612	-17.4503	86.5461	-231.307	-29.7591	118.879	-194.385	-24.0283	101.305	
47	0.391667	-161.749	-52.3386	102.15	-144.209	-48.8826	79.6088	-121.341	-39.7451	51.5019	-112.25	-37.8738	30.0205	-166.115	7.98761	44.3672	-158.969	21.4696	26.8421	-154.783	41.4944	4.65513	-193.243	16.2696	44.3942	-193.1	39.9464	20.5835	-189.389	61.4119	-1.16068	-220.723	14.2485	44.3768	-219.254	30.699	27.6747	-221.878	52.2887	5.84363	-241.752	-6.60088	54.0517	-251.246	13.055	39.1782	-256.252	35.2912	28.7233	-223.019	-19.1504	89.7485	-222.321	-25.9229	118.208	-186.945	-22.0026	105.447	
48	0.4	-157.929	-52.6851	108.307	-137.201	-48.8334	85.5458	-112.401	-38.9851	59.0031	-105.979	-34.3878	35.2395	-156.93	8.68226	51.1384	-150.328	26.338	31.7219	-144.763	44.3022	11.1566	-185.066	18.6067	47.1258	-177.66	42.4529	23.8549	-174.714	64.7521	1.41475	-207.587	12.3991	48.1667	-212.06	34.9778	28.4506	-204.944	55.6981	5.65484	-235.659	-1.57753	53.3313	-240.35	18.3308	38.2567	-244.398	35.593	30.5828	-217.376	-15.8974	91.6062	-218.876	-25.2815	117.655	-185.322	-21.3049	109.159	
49	0.408333	-148.967	-50.0023	109.778	-131.216	-46.6309	91.051	-108.053	-37.2073	66.1441	-94.0465	-31.735	44.2551	-148.596	12.2622	55.2298	-138.449	29.998	36.3991	-132.149	46.3882	17.8543	-174.731	22.3745	51.1606	-170.802	44.2337	28.7649	-169.453	68.7791	5.17771	-201.481	16.9277	50.3054	-199.436	37.4103	30.6267	-198.69	57.0924	10.8949	-222.746	-4.80276	55.8685	-228.334	16.5803	39.0175	-237.701	39.2481	32.1983	-209.047	-11.9511	91.5899	-211.712	-26.4448	120.487	-177.483	-20.2244	111.212	
50	0.416667	-148.159	-52.9783	116.723	-124.993	-45.0731	95.8749	-103.059	-36.3186	73.0123	-84.7099	-31.0605	54.654	-141.181	9.06724	64.0032	-133.98	32.7812	43.9534	-123.303	48.2535	27.1667	-168.45	22.9032	55.3036	-162.905	46.9046	33.9389	-160.587	68.0385	13.2707	-193.255	16.675	54.2803	-193.86	39.4645	32.9921	-188.566	60.5687	12.238	-218.407	0.726166	54.0415	-224.708	17.3681	40.6553	-225.566	38.269	32.6189	-204.629	-13.0006	95.129	-211.769	-23.8087	121.745	-174.347	-19.1849	114.679	
51	0.425	-146.248	-53.5503	120.098	-119.992	-47.0442	102.87	-99.5134	-35.5024	79.2205	-79.4964	-27.1269	60.2667	-137.175	13.14	68.9121	-125.416	33.189	52.1058	-116.034	53.2858	32.7389	-161.814	24.1314	60.2026	-153.109	46.0233	42.214	-150.242	73.8793	16.8544	-185.185	19.4998	56.6982	-183.007	41.2207	37.4399	-182.37	60.0223	17.7759	-214.828	0.643564	56.5962	-215.722	23.1462	39.0985	-215.253	42.6021	28.7881	-199.442	-11.7756	95.3821	-211.871	-25.3683	122.178	-169.898	-18.6189	118.318	
52	0.433333	-148.793	-49.4618	120.388	-123.415	-45.7859	107.005	-92.9643	-29.4263	84.3937	-77.52	-25.3226	67.6825	-136.074	14.941	74.9205	-122.179	35.3216	60.2078	-109.974	55.2408	40.9177	-158.395	30.4763	62.8473	-147.51	49.7467	47.4471	-138.01	73.5602	25.4352	-185.995	20.6413	58.5238	-177.729	43.0254	40.9586	-173.635	64.5089	20.3362	-209.707	4.54915	56.0532	-209.142	26.9804	38.8192	-211.971	49.6713	28.6527	-197.385	-10.2887	94.9954	-213.241	-24.3177	124.681	-169.136	-16.7112	119.441	
